<mxfile host="app.diagrams.net" agent="Mozilla/5.0 (Macintosh; Intel Mac OS X 10_15_7) AppleWebKit/537.36 (KHTML, like Gecko) Chrome/128.0.0.0 Safari/537.36 OPR/114.0.0.0" version="24.8.9">
  <diagram name="Page-1" id="HsVl_7upj26kkKA97jVK">
    <mxGraphModel dx="1703" dy="871" grid="1" gridSize="10" guides="1" tooltips="1" connect="1" arrows="1" fold="1" page="1" pageScale="1" pageWidth="850" pageHeight="1100" math="0" shadow="0">
      <root>
        <mxCell id="0" />
        <mxCell id="1" parent="0" />
        <mxCell id="TgKObJJwFAo9QxqFn2fn-65" value="&lt;div&gt;Player&lt;/div&gt;" style="shape=umlActor;verticalLabelPosition=bottom;verticalAlign=top;html=1;labelBackgroundColor=default;" vertex="1" parent="1">
          <mxGeometry x="100" y="210" width="30" height="60" as="geometry" />
        </mxCell>
        <mxCell id="TgKObJJwFAo9QxqFn2fn-66" value="&lt;font face=&quot;Helvetica&quot;&gt;&lt;span style=&quot;background-color: rgb(251, 251, 251);&quot;&gt;Interface&lt;/span&gt;&lt;/font&gt;" style="shape=umlLifeline;perimeter=lifelinePerimeter;whiteSpace=wrap;html=1;container=1;collapsible=0;recursiveResize=0;outlineConnect=0;rounded=1;shadow=0;comic=0;labelBackgroundColor=default;strokeWidth=1;fontFamily=Verdana;fontSize=12;align=center;movable=1;resizable=1;rotatable=1;deletable=1;editable=1;locked=0;connectable=1;" vertex="1" parent="1">
          <mxGeometry x="220" y="210" width="100" height="750" as="geometry" />
        </mxCell>
        <mxCell id="TgKObJJwFAo9QxqFn2fn-67" value="" style="html=1;points=[];perimeter=orthogonalPerimeter;rounded=0;shadow=0;comic=0;labelBackgroundColor=default;strokeWidth=1;fontFamily=Verdana;fontSize=12;align=center;" vertex="1" parent="TgKObJJwFAo9QxqFn2fn-66">
          <mxGeometry x="45" y="140" width="10" height="510" as="geometry" />
        </mxCell>
        <mxCell id="TgKObJJwFAo9QxqFn2fn-68" value="&lt;font face=&quot;Helvetica&quot;&gt;&lt;span style=&quot;font-size: 11px; text-wrap: wrap;&quot;&gt;List&amp;lt;Pokemon&amp;gt;&lt;/span&gt;&lt;/font&gt;" style="html=1;verticalAlign=bottom;endArrow=none;labelBackgroundColor=default;fontFamily=Verdana;fontSize=12;edgeStyle=elbowEdgeStyle;elbow=vertical;dashed=1;startArrow=classic;startFill=1;endFill=0;" edge="1" parent="TgKObJJwFAo9QxqFn2fn-66">
          <mxGeometry x="-0.133" y="-2" relative="1" as="geometry">
            <mxPoint x="-95" y="590" as="sourcePoint" />
            <mxPoint x="45" y="590" as="targetPoint" />
            <mxPoint as="offset" />
          </mxGeometry>
        </mxCell>
        <mxCell id="TgKObJJwFAo9QxqFn2fn-86" value="" style="html=1;verticalAlign=bottom;endArrow=block;labelBackgroundColor=default;fontFamily=Verdana;fontSize=12;edgeStyle=elbowEdgeStyle;elbow=vertical;" edge="1" parent="TgKObJJwFAo9QxqFn2fn-66" target="TgKObJJwFAo9QxqFn2fn-71">
          <mxGeometry x="-0.4228" relative="1" as="geometry">
            <mxPoint x="60" y="200.11" as="sourcePoint" />
            <mxPoint x="210" y="200.76" as="targetPoint" />
            <mxPoint as="offset" />
          </mxGeometry>
        </mxCell>
        <mxCell id="TgKObJJwFAo9QxqFn2fn-87" value="&lt;font face=&quot;Verdana&quot;&gt;&lt;span style=&quot;font-size: 12px;&quot;&gt;&lt;b&gt;getPokemons()&lt;/b&gt;&lt;/span&gt;&lt;/font&gt;" style="edgeLabel;html=1;align=center;verticalAlign=middle;resizable=0;points=[];labelBackgroundColor=default;" vertex="1" connectable="0" parent="TgKObJJwFAo9QxqFn2fn-86">
          <mxGeometry x="-0.4655" y="1" relative="1" as="geometry">
            <mxPoint x="34" y="-9" as="offset" />
          </mxGeometry>
        </mxCell>
        <mxCell id="TgKObJJwFAo9QxqFn2fn-71" value="&lt;font face=&quot;Helvetica&quot;&gt;&lt;span style=&quot;background-color: rgb(251, 251, 251);&quot;&gt;API&lt;/span&gt;&lt;/font&gt;" style="shape=umlLifeline;perimeter=lifelinePerimeter;whiteSpace=wrap;html=1;container=1;collapsible=0;recursiveResize=0;outlineConnect=0;rounded=1;shadow=0;comic=0;labelBackgroundColor=default;strokeWidth=1;fontFamily=Verdana;fontSize=12;align=center;movable=1;resizable=1;rotatable=1;deletable=1;editable=1;locked=0;connectable=1;" vertex="1" parent="1">
          <mxGeometry x="415" y="210" width="100" height="750" as="geometry" />
        </mxCell>
        <mxCell id="TgKObJJwFAo9QxqFn2fn-72" value="" style="html=1;points=[];perimeter=orthogonalPerimeter;rounded=0;shadow=0;comic=0;labelBackgroundColor=default;strokeWidth=1;fontFamily=Verdana;fontSize=12;align=center;" vertex="1" parent="TgKObJJwFAo9QxqFn2fn-71">
          <mxGeometry x="45" y="140" width="10" height="450" as="geometry" />
        </mxCell>
        <mxCell id="TgKObJJwFAo9QxqFn2fn-76" value="&lt;font face=&quot;Helvetica&quot;&gt;&lt;span style=&quot;background-color: rgb(251, 251, 251);&quot;&gt;Data Repository&lt;/span&gt;&lt;/font&gt;" style="shape=umlLifeline;perimeter=lifelinePerimeter;whiteSpace=wrap;html=1;container=1;collapsible=0;recursiveResize=0;outlineConnect=0;rounded=1;shadow=0;comic=0;labelBackgroundColor=default;strokeWidth=1;fontFamily=Verdana;fontSize=12;align=center;movable=1;resizable=1;rotatable=1;deletable=1;editable=1;locked=0;connectable=1;" vertex="1" parent="1">
          <mxGeometry x="630" y="210" width="100" height="750" as="geometry" />
        </mxCell>
        <mxCell id="TgKObJJwFAo9QxqFn2fn-77" value="" style="html=1;points=[];perimeter=orthogonalPerimeter;rounded=0;shadow=0;comic=0;labelBackgroundColor=default;strokeWidth=1;fontFamily=Verdana;fontSize=12;align=center;" vertex="1" parent="TgKObJJwFAo9QxqFn2fn-76">
          <mxGeometry x="45" y="270" width="10" height="160" as="geometry" />
        </mxCell>
        <mxCell id="TgKObJJwFAo9QxqFn2fn-81" style="edgeStyle=orthogonalEdgeStyle;rounded=0;orthogonalLoop=1;jettySize=auto;html=1;labelBackgroundColor=default;" edge="1" parent="1">
          <mxGeometry relative="1" as="geometry">
            <mxPoint x="115" y="960" as="targetPoint" />
            <mxPoint x="114.41" y="300" as="sourcePoint" />
          </mxGeometry>
        </mxCell>
        <mxCell id="TgKObJJwFAo9QxqFn2fn-82" value="Assignment 3 | CS 6310 FALL 2024&lt;div&gt;Sequence Diagram Robustness&amp;nbsp;&lt;/div&gt;&lt;div&gt;Group 55&lt;/div&gt;" style="rounded=1;whiteSpace=wrap;html=1;fillColor=#f5f5f5;fontColor=#333333;strokeColor=#666666;labelBackgroundColor=default;" vertex="1" parent="1">
          <mxGeometry x="320" y="50" width="240" height="70" as="geometry" />
        </mxCell>
        <mxCell id="TgKObJJwFAo9QxqFn2fn-83" value="" style="html=1;verticalAlign=bottom;endArrow=block;labelBackgroundColor=default;fontFamily=Verdana;fontSize=12;edgeStyle=elbowEdgeStyle;elbow=vertical;" edge="1" parent="1" target="TgKObJJwFAo9QxqFn2fn-66">
          <mxGeometry x="-0.4228" relative="1" as="geometry">
            <mxPoint x="120" y="380.35" as="sourcePoint" />
            <mxPoint x="250" y="380" as="targetPoint" />
            <mxPoint as="offset" />
          </mxGeometry>
        </mxCell>
        <mxCell id="TgKObJJwFAo9QxqFn2fn-84" value="&lt;font face=&quot;Verdana&quot;&gt;&lt;span style=&quot;font-size: 12px;&quot;&gt;&lt;b&gt;clickPokemon&lt;/b&gt;&lt;/span&gt;&lt;/font&gt;" style="edgeLabel;html=1;align=center;verticalAlign=middle;resizable=0;points=[];labelBackgroundColor=default;" vertex="1" connectable="0" parent="TgKObJJwFAo9QxqFn2fn-83">
          <mxGeometry x="-0.4655" y="1" relative="1" as="geometry">
            <mxPoint x="34" y="-9" as="offset" />
          </mxGeometry>
        </mxCell>
        <mxCell id="TgKObJJwFAo9QxqFn2fn-88" value="" style="html=1;verticalAlign=bottom;endArrow=block;labelBackgroundColor=default;fontFamily=Verdana;fontSize=12;edgeStyle=elbowEdgeStyle;elbow=vertical;" edge="1" parent="1">
          <mxGeometry x="-0.4228" relative="1" as="geometry">
            <mxPoint x="470.68" y="500" as="sourcePoint" />
            <mxPoint x="670" y="500" as="targetPoint" />
            <mxPoint as="offset" />
          </mxGeometry>
        </mxCell>
        <mxCell id="TgKObJJwFAo9QxqFn2fn-89" value="&lt;font face=&quot;Verdana&quot;&gt;&lt;span style=&quot;font-size: 12px;&quot;&gt;&lt;b&gt;executeQuery()&lt;/b&gt;&lt;/span&gt;&lt;/font&gt;" style="edgeLabel;html=1;align=center;verticalAlign=middle;resizable=0;points=[];labelBackgroundColor=default;" vertex="1" connectable="0" parent="TgKObJJwFAo9QxqFn2fn-88">
          <mxGeometry x="-0.4655" y="1" relative="1" as="geometry">
            <mxPoint x="34" y="-9" as="offset" />
          </mxGeometry>
        </mxCell>
        <mxCell id="TgKObJJwFAo9QxqFn2fn-92" value="loop up to 3 times" style="shape=umlFrame;whiteSpace=wrap;html=1;pointerEvents=0;width=110;height=30;" vertex="1" parent="1">
          <mxGeometry x="330" y="460" width="420" height="290" as="geometry" />
        </mxCell>
        <mxCell id="TgKObJJwFAo9QxqFn2fn-94" value="&lt;b&gt;wait(500ms)&lt;/b&gt;" style="html=1;verticalAlign=bottom;endArrow=block;labelBackgroundColor=default;fontFamily=Verdana;fontSize=12;elbow=vertical;edgeStyle=orthogonalEdgeStyle;curved=1;exitX=0.9;exitY=0.051;exitPerimeter=0;exitDx=0;exitDy=0;" edge="1" parent="1">
          <mxGeometry relative="1" as="geometry">
            <mxPoint x="474" y="670" as="sourcePoint" />
            <mxPoint x="470" y="708" as="targetPoint" />
            <Array as="points">
              <mxPoint x="546" y="670" />
              <mxPoint x="546" y="708" />
            </Array>
          </mxGeometry>
        </mxCell>
        <mxCell id="TgKObJJwFAo9QxqFn2fn-96" value="Alt" style="shape=umlFrame;whiteSpace=wrap;html=1;pointerEvents=0;" vertex="1" parent="1">
          <mxGeometry x="370" y="550" width="380" height="180" as="geometry" />
        </mxCell>
        <mxCell id="TgKObJJwFAo9QxqFn2fn-78" value="&lt;font face=&quot;Helvetica&quot;&gt;&lt;span style=&quot;font-size: 11px; text-wrap: wrap;&quot;&gt;List&amp;lt;Result&amp;gt;&lt;/span&gt;&lt;/font&gt;" style="html=1;verticalAlign=bottom;endArrow=none;labelBackgroundColor=default;fontFamily=Verdana;fontSize=12;edgeStyle=elbowEdgeStyle;elbow=vertical;dashed=1;startArrow=classic;startFill=1;endFill=0;" edge="1" parent="1">
          <mxGeometry x="-0.1298" y="-2" relative="1" as="geometry">
            <mxPoint x="470" y="530.22" as="sourcePoint" />
            <mxPoint x="675" y="530.26" as="targetPoint" />
            <mxPoint as="offset" />
          </mxGeometry>
        </mxCell>
        <mxCell id="TgKObJJwFAo9QxqFn2fn-97" value="" style="endArrow=none;dashed=1;html=1;rounded=0;exitX=0.002;exitY=0.447;exitDx=0;exitDy=0;exitPerimeter=0;" edge="1" parent="1">
          <mxGeometry width="50" height="50" relative="1" as="geometry">
            <mxPoint x="370.76" y="640" as="sourcePoint" />
            <mxPoint x="750" y="640.07" as="targetPoint" />
          </mxGeometry>
        </mxCell>
        <mxCell id="TgKObJJwFAo9QxqFn2fn-98" value="[Result != TimeOut]" style="text;html=1;align=center;verticalAlign=middle;resizable=0;points=[];autosize=1;strokeColor=none;fillColor=none;" vertex="1" parent="1">
          <mxGeometry x="460" y="550" width="130" height="30" as="geometry" />
        </mxCell>
        <mxCell id="TgKObJJwFAo9QxqFn2fn-99" value="else" style="text;html=1;align=center;verticalAlign=middle;resizable=0;points=[];autosize=1;strokeColor=none;fillColor=none;" vertex="1" parent="1">
          <mxGeometry x="365" y="640" width="50" height="30" as="geometry" />
        </mxCell>
        <mxCell id="TgKObJJwFAo9QxqFn2fn-95" value="&lt;font face=&quot;Helvetica&quot;&gt;&lt;span style=&quot;font-size: 11px; text-wrap: wrap;&quot;&gt;List&amp;lt;Pokemon&amp;gt;&lt;/span&gt;&lt;/font&gt;" style="html=1;verticalAlign=bottom;endArrow=none;labelBackgroundColor=default;fontFamily=Verdana;fontSize=12;edgeStyle=elbowEdgeStyle;elbow=vertical;dashed=1;startArrow=classic;startFill=1;endFill=0;" edge="1" parent="1">
          <mxGeometry x="-0.133" y="-2" relative="1" as="geometry">
            <mxPoint x="280" y="610" as="sourcePoint" />
            <mxPoint x="460" y="610.1600000000001" as="targetPoint" />
            <mxPoint as="offset" />
          </mxGeometry>
        </mxCell>
      </root>
    </mxGraphModel>
  </diagram>
</mxfile>
